<svg data-main-color="#00CDE6" xmlns="http://www.w3.org/2000/svg" width="24" height="24" viewBox="0 0 24 24" fill="none" stroke="#000000" stroke-width="2" stroke-linecap="round" stroke-linejoin="round"><defs><mask id="cloud"><rect x="-2" y="-2" width="28" height="28" fill="#ffffff" stroke="none"/><path transform="translate(3.5 4) scale(0.85)" fill="#000000" stroke="#000000" stroke-width="5" d="M6.657 18c-2.572 0 -4.657 -2.007 -4.657 -4.483c0 -2.475 2.085 -4.482 4.657 -4.482c.393 -1.762 1.794 -3.2 3.675 -3.773c1.88 -.572 3.956 -.193 5.444 1c1.488 1.19 2.162 3.007 1.77 4.769h.99c1.913 0 3.464 1.56 3.464 3.486c0 1.927 -1.551 3.487 -3.465 3.487h-11.878"/></mask></defs><g mask="url(#cloud)"><g transform="scale(0.6)" stroke-width="3.33"><path stroke="#EF9F27" d="M8 12a4 4 0 1 0 8 0a4 4 0 1 0 -8 0" />
  <path stroke="#EF9F27" d="M3 12h1m8 -9v1m8 8h1m-9 8v1m-6.4 -15.4l.7 .7m12.1 -.7l-.7 .7m0 11.4l.7 .7m-12.1 -.7l-.7 .7" /></g></g><g transform="translate(3.5 4) scale(0.85)" stroke-width="2.35"><path stroke="#888780" d="M7 18a4.6 4.4 0 0 1 0 -9a5 4.5 0 0 1 11 2h1a3.5 3.5 0 0 1 0 7" />
  <path stroke="#00CDE6" d="M11 15v.01m0 3v.01m0 3v.01m4 -4v.01m0 3v.01" /></g></svg>
