<svg data-main-color="#888780" xmlns="http://www.w3.org/2000/svg" width="24" height="24" viewBox="0 0 24 24" fill="none" stroke="#000000" stroke-width="2" stroke-linecap="round" stroke-linejoin="round"><g><path stroke="#EF9F27" d="M14.468 10a4 4 0 1 0 -5.466 5.46" />
  <path stroke="#EF9F27" d="M2 12h1" />
  <path stroke="#EF9F27" d="M11 3v1" />
  <path stroke="#EF9F27" d="M11 20v1" />
  <path stroke="#EF9F27" d="M4.6 5.6l.7 .7" />
  <path stroke="#EF9F27" d="M17.4 5.6l-.7 .7" />
  <path stroke="#EF9F27" d="M5.3 17.7l-.7 .7" />
  <path stroke="#888780" d="M15 13h5a2 2 0 1 0 0 -4" />
  <path stroke="#888780" d="M12 16h5.714l.253 0a2 2 0 0 1 2.033 2a2 2 0 0 1 -2 2h-.286" /></g></svg>
